<svg width="24" height="24" viewBox="0 0 24 24" fill="none" xmlns="http://www.w3.org/2000/svg">
<path d="M17.5105 7.38496C17.635 6.87168 18.365 6.87168 18.4895 7.38496L18.8319 8.79729C18.8764 8.98055 19.0194 9.12363 19.2027 9.16807L20.615 9.51054C21.1283 9.635 21.1283 10.365 20.615 10.4895L19.2027 10.8319C19.0194 10.8764 18.8764 11.0195 18.8319 11.2027L18.4895 12.615C18.365 13.1283 17.635 13.1283 17.5105 12.615L17.1681 11.2027C17.1236 11.0195 16.9805 10.8764 16.7973 10.8319L15.385 10.4895C15.3529 10.4817 15.3228 10.4715 15.2947 10.4593C14.8737 10.2761 14.9038 9.62722 15.385 9.51054L16.7973 9.16807C16.9805 9.12363 17.1236 8.98055 17.1681 8.79729L17.5105 7.38496Z" fill="#FF52A8"/>
<path fill-rule="evenodd" clip-rule="evenodd" d="M11.2831 15.0283C10.1018 14.8067 8.89819 14.8067 7.71685 15.0283C7.12958 15.1385 6.65306 15.7508 6.65306 16.5282V16.7946C6.65306 17.0222 6.8013 17.1379 6.9104 17.1379H12.0896C12.1987 17.1379 12.3469 17.0222 12.3469 16.7946V16.5282C12.3469 15.7508 11.8704 15.1385 11.2831 15.0283ZM7.44523 13.1916C8.80641 12.9361 10.1936 12.9361 11.5548 13.1916C12.989 13.4607 14 14.8986 14 16.5282V16.7946C14 17.9746 13.1777 19 12.0896 19H6.9104C5.82229 19 4.99999 17.9746 4.99999 16.7946V16.5282C4.99999 14.8986 6.01096 13.4607 7.44523 13.1916Z" fill="#FF52A8"/>
<path fill-rule="evenodd" clip-rule="evenodd" d="M7.2772 1.82966C7.37127 2.28958 7.07469 2.73868 6.61478 2.83276C5.52553 3.05556 4.69933 3.48886 4.09409 4.0941C3.48885 4.69933 3.05555 5.52553 2.83275 6.61478C2.73868 7.0747 2.28958 7.37128 1.82966 7.2772C1.36974 7.18313 1.07316 6.73403 1.16724 6.27411C1.44444 4.91891 2.01114 3.77289 2.89201 2.89201C3.77288 2.01114 4.91891 1.44444 6.2741 1.16724C6.73402 1.07317 7.18312 1.36974 7.2772 1.82966ZM22.1632 15.6103C22.6239 15.7004 22.9243 16.1469 22.8342 16.6077C22.3007 19.3342 20.6386 22.2553 17.1397 22.8384C16.6767 22.9156 16.2387 22.6028 16.1616 22.1397C16.0844 21.6767 16.3972 21.2387 16.8603 21.1616C19.3613 20.7447 20.6993 18.6658 21.1658 16.2812C21.2559 15.8205 21.7025 15.5201 22.1632 15.6103ZM1.99999 15.5944C2.46944 15.5944 2.84999 15.975 2.84999 16.4444C2.84999 19.0649 4.53444 20.7417 6.61477 21.1672C7.07469 21.2613 7.37127 21.7104 7.2772 22.1703C7.18312 22.6303 6.73402 22.9268 6.2741 22.8328C3.46555 22.2583 1.14999 19.9351 1.14999 16.4444C1.14999 15.975 1.53055 15.5944 1.99999 15.5944Z" fill="#FF52A8"/>
<path fill-rule="evenodd" clip-rule="evenodd" d="M9.49999 10.2C10.4389 10.2 11.2 9.43888 11.2 8.5C11.2 7.56112 10.4389 6.8 9.49999 6.8C8.56111 6.8 7.79999 7.56112 7.79999 8.5C7.79999 9.43888 8.56111 10.2 9.49999 10.2ZM9.49999 12C11.433 12 13 10.433 13 8.5C13 6.567 11.433 5 9.49999 5C7.567 5 5.99999 6.567 5.99999 8.5C5.99999 10.433 7.567 12 9.49999 12Z" fill="#FF52A8"/>
<path d="M17 2C17 2.55228 16.5523 3 16 3C15.4477 3 15 2.55228 15 2C15 1.44772 15.4477 1 16 1C16.5523 1 17 1.44772 17 2Z" fill="#FF52A8"/>
<path d="M22 4C22 4.55228 21.5523 5 21 5C20.4477 5 20 4.55228 20 4C20 3.44772 20.4477 3 21 3C21.5523 3 22 3.44772 22 4Z" fill="#FF52A8"/>
<path d="M19 16C19 16.5523 18.5523 17 18 17C17.4477 17 17 16.5523 17 16C17 15.4477 17.4477 15 18 15C18.5523 15 19 15.4477 19 16Z" fill="#FF52A8"/>
</svg>
