<svg width="24" height="24" viewBox="0 0 24 24" fill="none" xmlns="http://www.w3.org/2000/svg">
<path d="M22 3.00002C22.5523 3.00002 23 2.55231 23 2.00002C23 1.44774 22.5523 1.00002 22 1.00002C21.4477 1.00002 21 1.44774 21 2.00002C21 2.55231 21.4477 3.00002 22 3.00002Z" fill="#FF52A8"/>
<path d="M3 22C3 22.5523 2.55228 23 2 23C1.44772 23 1 22.5523 1 22C1 21.4477 1.44772 21 2 21C2.55228 21 3 21.4477 3 22Z" fill="#FF52A8"/>
<path d="M4.5 5.5C5.05228 5.5 5.5 5.05228 5.5 4.5C5.5 3.94771 5.05228 3.5 4.5 3.5C3.94771 3.5 3.5 3.94771 3.5 4.5C3.5 5.05228 3.94771 5.5 4.5 5.5Z" fill="#FF52A8"/>
<path fill-rule="evenodd" clip-rule="evenodd" d="M12.7143 5C8.4538 5 5 8.4538 5 12.7143C5 16.9748 8.4538 20.4286 12.7143 20.4286C14.5357 20.4286 16.2097 19.7973 17.5294 18.7416L21.5368 22.7489C21.8715 23.0837 22.4142 23.0837 22.7489 22.7489C23.0837 22.4142 23.0837 21.8715 22.7489 21.5368L18.7416 17.5294C19.7973 16.2097 20.4286 14.5357 20.4286 12.7143C20.4286 8.4538 16.9748 5 12.7143 5ZM6.54286 12.7143C6.54286 16.1227 9.3059 18.8857 12.7143 18.8857C16.1227 18.8857 18.8857 16.1227 18.8857 12.7143C18.8857 9.3059 16.1227 6.54286 12.7143 6.54286C9.3059 6.54286 6.54286 9.3059 6.54286 12.7143Z" fill="#FF52A8"/>
<path d="M12.0921 10.3208C12.1958 9.89307 12.8042 9.89307 12.9079 10.3208L13.1933 11.4977C13.2303 11.6505 13.3495 11.7697 13.5023 11.8067L14.6792 12.0921C15.1069 12.1958 15.1069 12.8042 14.6792 12.9079L13.5023 13.1933C13.3495 13.2303 13.2303 13.3495 13.1933 13.5023L12.9079 14.6792C12.8042 15.1069 12.1958 15.1069 12.0921 14.6792L11.8067 13.5023C11.7697 13.3495 11.6505 13.2303 11.4977 13.1933L10.3208 12.9079C9.89307 12.8042 9.89307 12.1958 10.3208 12.0921L11.4977 11.8067C11.6505 11.7697 11.7697 11.6505 11.8067 11.4977L12.0921 10.3208Z" fill="#FF52A8"/>
<path fill-rule="evenodd" clip-rule="evenodd" d="M12.5 10.7759L12.2962 11.6164C12.2147 11.9524 11.9524 12.2147 11.6164 12.2962L10.7759 12.5L11.6164 12.7038C11.9524 12.7853 12.2147 13.0476 12.2962 13.3836L12.5 14.2241L12.7038 13.3836C12.7853 13.0476 13.0476 12.7853 13.3836 12.7038L14.2241 12.5L13.3836 12.2962C13.0476 12.2147 12.7853 11.9524 12.7038 11.6164L12.5 10.7759ZM12.9079 10.3208C12.8042 9.89307 12.1958 9.89307 12.0921 10.3208L11.8067 11.4977C11.7697 11.6505 11.6505 11.7697 11.4977 11.8067L10.3208 12.0921C9.89307 12.1958 9.89307 12.8042 10.3208 12.9079L11.4977 13.1933C11.6505 13.2303 11.7697 13.3495 11.8067 13.5023L12.0921 14.6792C12.1958 15.1069 12.8042 15.1069 12.9079 14.6792L13.1933 13.5023C13.2303 13.3495 13.3495 13.2303 13.5023 13.1933L14.6792 12.9079C15.1069 12.8042 15.1069 12.1958 14.6792 12.0921L13.5023 11.8067C13.3495 11.7697 13.2303 11.6505 13.1933 11.4977L12.9079 10.3208Z" fill="#FF52A8"/>
</svg>
