<svg width="1440" height="241" viewBox="0 0 1440 241" fill="none" xmlns="http://www.w3.org/2000/svg">
<path d="M1436.18 106.327L1397.97 110.496C1396.88 106.636 1394.99 103.008 1392.29 99.611C1389.67 96.2143 1386.12 93.4738 1381.64 91.3894C1377.16 89.305 1371.68 88.2629 1365.19 88.2629C1356.47 88.2629 1349.14 90.1542 1343.19 93.9369C1337.33 97.7197 1334.43 102.622 1334.51 108.643C1334.43 113.816 1336.32 118.023 1340.18 121.265C1344.12 124.507 1350.6 127.171 1359.64 129.255L1389.98 135.74C1406.8 139.368 1419.31 145.119 1427.49 152.994C1435.75 160.868 1439.92 171.174 1440 183.912C1439.92 195.105 1436.64 204.987 1430.16 213.556C1423.75 222.048 1414.83 228.687 1403.41 233.473C1391.98 238.259 1378.86 240.652 1364.04 240.652C1342.27 240.652 1324.74 236.098 1311.46 226.988C1298.19 217.802 1290.27 205.025 1287.73 188.659L1328.6 184.722C1330.46 192.751 1334.39 198.811 1340.41 202.902C1346.44 206.994 1354.27 209.04 1363.92 209.04C1373.88 209.04 1381.87 206.994 1387.89 202.902C1393.99 198.811 1397.04 193.754 1397.04 187.733C1397.04 182.638 1395.07 178.431 1391.13 175.111C1387.27 171.791 1381.25 169.244 1373.07 167.468L1342.73 161.099C1325.67 157.548 1313.05 151.566 1304.86 143.151C1296.68 134.659 1292.63 123.928 1292.71 110.959C1292.63 99.997 1295.6 90.5016 1301.62 82.473C1307.72 74.3672 1316.17 68.1141 1326.98 63.7138C1337.87 59.2363 1350.41 56.9976 1364.62 56.9976C1385.46 56.9976 1401.86 61.4365 1413.83 70.3143C1425.87 79.1921 1433.32 91.1964 1436.18 106.327Z" fill="white" fill-opacity="0.09"/>
<path d="M1207.8 0.0253906H1250.76V154.962C1250.76 171.946 1246.74 186.884 1238.71 199.776C1230.76 212.668 1219.57 222.743 1205.13 229.999C1190.7 237.179 1173.83 240.768 1154.53 240.768C1135.15 240.768 1118.25 237.179 1103.81 229.999C1089.37 222.743 1078.18 212.668 1070.23 199.776C1062.28 186.884 1058.3 171.946 1058.3 154.962V0.0253906H1101.26V151.373C1101.26 161.254 1103.42 170.055 1107.75 177.775C1112.15 185.494 1118.32 191.554 1126.28 195.955C1134.23 200.278 1143.65 202.439 1154.53 202.439C1165.41 202.439 1174.83 200.278 1182.78 195.955C1190.81 191.554 1196.99 185.494 1201.31 177.775C1205.64 170.055 1207.8 161.254 1207.8 151.373V0.0253906Z" fill="white" fill-opacity="0.09"/>
<path d="M940.507 59.3137V91.737H838.258V59.3137H940.507ZM863.502 16.7002H905.421V183.68C905.421 189.316 906.27 193.639 907.968 196.649C909.744 199.583 912.06 201.59 914.916 202.671C917.772 203.752 920.938 204.292 924.411 204.292C927.036 204.292 929.429 204.099 931.591 203.713C933.83 203.327 935.528 202.98 936.686 202.671L943.75 235.442C941.511 236.214 938.307 237.063 934.138 237.989C930.047 238.916 925.029 239.456 919.085 239.61C908.586 239.919 899.129 238.337 890.714 234.863C882.3 231.312 875.622 225.83 870.681 218.419C865.818 211.008 863.425 201.745 863.502 190.628V16.7002Z" fill="white" fill-opacity="0.09"/>
<path d="M766.666 162.373V59.3135H808.585V237.178H767.94V205.566H766.087C762.073 215.524 755.473 223.669 746.286 229.999C737.177 236.329 725.944 239.494 712.589 239.494C700.932 239.494 690.626 236.908 681.671 231.736C672.793 226.486 665.845 218.882 660.827 208.924C655.81 198.888 653.301 186.768 653.301 172.563V59.3135H695.219V166.079C695.219 177.35 698.307 186.305 704.483 192.944C710.659 199.583 718.765 202.902 728.801 202.902C734.976 202.902 740.959 201.397 746.749 198.386C752.539 195.376 757.287 190.898 760.992 184.954C764.775 178.932 766.666 171.405 766.666 162.373Z" fill="white" fill-opacity="0.09"/>
<path d="M532.495 240.652C515.125 240.652 500.071 236.831 487.334 229.188C474.596 221.546 464.715 210.854 457.69 197.113C450.742 183.371 447.268 167.314 447.268 148.941C447.268 130.568 450.742 114.472 457.69 100.653C464.715 86.8347 474.596 76.1041 487.334 68.4615C500.071 60.8189 515.125 56.9976 532.495 56.9976C549.864 56.9976 564.918 60.8189 577.656 68.4615C590.394 76.1041 600.236 86.8347 607.184 100.653C614.209 114.472 617.722 130.568 617.722 148.941C617.722 167.314 614.209 183.371 607.184 197.113C600.236 210.854 590.394 221.546 577.656 229.188C564.918 236.831 549.864 240.652 532.495 240.652ZM532.726 207.071C542.145 207.071 550.019 204.485 556.349 199.313C562.679 194.063 567.388 187.038 570.476 178.238C573.641 169.437 575.224 159.633 575.224 148.825C575.224 137.94 573.641 128.097 570.476 119.297C567.388 110.419 562.679 103.355 556.349 98.1057C550.019 92.8562 542.145 90.2314 532.726 90.2314C523.077 90.2314 515.048 92.8562 508.641 98.1057C502.31 103.355 497.563 110.419 494.397 119.297C491.309 128.097 489.766 137.94 489.766 148.825C489.766 159.633 491.309 169.437 494.397 178.238C497.563 187.038 502.31 194.063 508.641 199.313C515.048 204.485 523.077 207.071 532.726 207.071Z" fill="white" fill-opacity="0.09"/>
<path d="M251.367 237.179V0.0253906H293.286V88.7263H295.023C297.185 84.4032 300.234 79.8099 304.171 74.9464C308.108 70.0057 313.435 65.7984 320.151 62.3244C326.867 58.7733 335.436 56.9978 345.858 56.9978C359.599 56.9978 371.99 60.5103 383.029 67.5353C394.146 74.4832 402.946 84.7891 409.431 98.4532C415.993 112.04 419.274 128.715 419.274 148.478C419.274 168.009 416.07 184.607 409.663 198.271C403.255 211.935 394.532 222.357 383.492 229.536C372.453 236.715 359.947 240.305 345.974 240.305C335.784 240.305 327.331 238.607 320.614 235.21C313.898 231.813 308.494 227.722 304.403 222.936C300.388 218.072 297.262 213.479 295.023 209.156H292.591V237.179H251.367ZM292.476 148.246C292.476 159.749 294.097 169.823 297.339 178.469C300.659 187.116 305.406 193.87 311.582 198.734C317.835 203.52 325.401 205.913 334.278 205.913C343.542 205.913 351.301 203.443 357.554 198.502C363.807 193.484 368.516 186.652 371.681 178.006C374.923 169.283 376.545 159.363 376.545 148.246C376.545 137.207 374.962 127.403 371.797 118.834C368.632 110.265 363.923 103.548 357.67 98.6848C351.416 93.8214 343.619 91.3896 334.278 91.3896C325.323 91.3896 317.719 93.7441 311.466 98.4532C305.213 103.162 300.466 109.763 297.223 118.255C294.058 126.746 292.476 136.744 292.476 148.246Z" fill="white" fill-opacity="0.09"/>
<path d="M45.8558 237.179H0L83.49 0.0253906H136.525L220.131 237.179H174.275L110.934 48.6603H109.081L45.8558 237.179ZM47.3612 144.193H172.422V178.701H47.3612V144.193Z" fill="white" fill-opacity="0.09"/>
</svg>
