<svg width="807" height="513" viewBox="0 0 807 513" fill="none" xmlns="http://www.w3.org/2000/svg">
<g style="mix-blend-mode:screen">
<mask id="mask0_113_1429" style="mask-type:alpha" maskUnits="userSpaceOnUse" x="0" y="0" width="807" height="437">
<ellipse cx="403.872" cy="218.361" rx="403.127" ry="218.361" fill="white"/>
</mask>
<g mask="url(#mask0_113_1429)">
<rect x="4.94434" y="-20.9962" width="5.59899" height="478.714" fill="white" fill-opacity="0.03"/>
<rect x="16.1421" y="-20.9962" width="5.59899" height="478.714" fill="white" fill-opacity="0.03"/>
<rect x="27.3401" y="-20.9962" width="5.59899" height="478.714" fill="white" fill-opacity="0.03"/>
<rect x="38.5381" y="-20.9962" width="5.59899" height="478.714" fill="white" fill-opacity="0.03"/>
<rect x="49.7361" y="-20.9962" width="5.59899" height="478.714" fill="white" fill-opacity="0.03"/>
<rect x="60.9341" y="-20.9962" width="5.59899" height="478.714" fill="white" fill-opacity="0.03"/>
<rect x="72.1321" y="-20.9962" width="5.59899" height="478.714" fill="white" fill-opacity="0.03"/>
<rect x="83.3301" y="-20.9962" width="5.59899" height="478.714" fill="white" fill-opacity="0.03"/>
<rect x="94.5281" y="-20.9962" width="5.59899" height="478.714" fill="white" fill-opacity="0.03"/>
<rect x="105.726" y="-20.9962" width="5.59899" height="478.714" fill="white" fill-opacity="0.03"/>
<rect x="116.924" y="-20.9962" width="5.59899" height="478.714" fill="white" fill-opacity="0.03"/>
<rect x="128.122" y="-20.9962" width="5.59899" height="478.714" fill="white" fill-opacity="0.03"/>
<rect x="139.32" y="-20.9962" width="5.59899" height="478.714" fill="white" fill-opacity="0.03"/>
<rect x="150.518" y="-20.9962" width="5.59899" height="478.714" fill="white" fill-opacity="0.03"/>
<rect x="161.716" y="-20.9962" width="5.59899" height="478.714" fill="white" fill-opacity="0.03"/>
<rect x="172.914" y="-20.9962" width="5.59899" height="478.714" fill="white" fill-opacity="0.03"/>
<rect x="184.112" y="-20.9962" width="5.59899" height="478.714" fill="white" fill-opacity="0.03"/>
<rect x="195.31" y="-20.9962" width="5.59899" height="478.714" fill="white" fill-opacity="0.03"/>
<rect x="206.508" y="-20.9962" width="5.59899" height="478.714" fill="white" fill-opacity="0.03"/>
<rect x="217.706" y="-20.9962" width="5.59899" height="478.714" fill="white" fill-opacity="0.03"/>
<rect x="228.904" y="-20.9962" width="5.59899" height="478.714" fill="white" fill-opacity="0.03"/>
<rect x="240.102" y="-20.9962" width="5.59899" height="478.714" fill="white" fill-opacity="0.03"/>
<rect x="251.3" y="-20.9962" width="5.59899" height="478.714" fill="white" fill-opacity="0.03"/>
<rect x="262.498" y="-20.9962" width="5.59899" height="478.714" fill="white" fill-opacity="0.03"/>
<rect x="273.696" y="-20.9962" width="5.59899" height="478.714" fill="white" fill-opacity="0.03"/>
<rect x="284.894" y="-20.9962" width="5.59899" height="478.714" fill="white" fill-opacity="0.03"/>
<rect x="296.092" y="-20.9962" width="5.59899" height="478.714" fill="white" fill-opacity="0.03"/>
<rect x="307.29" y="-20.9962" width="5.59899" height="478.714" fill="white" fill-opacity="0.03"/>
<rect x="318.488" y="-20.9962" width="5.59899" height="478.714" fill="white" fill-opacity="0.03"/>
<rect x="329.686" y="-20.9962" width="5.59899" height="478.714" fill="white" fill-opacity="0.03"/>
<rect x="340.884" y="-20.9962" width="5.59899" height="478.714" fill="white" fill-opacity="0.03"/>
<rect x="352.082" y="-20.9962" width="5.59899" height="478.714" fill="white" fill-opacity="0.03"/>
<rect x="363.28" y="-20.9962" width="5.59899" height="478.714" fill="white" fill-opacity="0.03"/>
<rect x="374.478" y="-20.9962" width="5.59899" height="478.714" fill="white" fill-opacity="0.03"/>
<rect x="385.676" y="-20.9962" width="5.59899" height="478.714" fill="white" fill-opacity="0.03"/>
<rect x="396.874" y="-20.9962" width="5.59899" height="478.714" fill="white" fill-opacity="0.03"/>
<rect x="408.072" y="-20.9962" width="5.59899" height="478.714" fill="white" fill-opacity="0.03"/>
<rect x="419.27" y="-20.9962" width="5.59899" height="478.714" fill="white" fill-opacity="0.03"/>
<rect x="430.468" y="-20.9962" width="5.59899" height="478.714" fill="white" fill-opacity="0.03"/>
<rect x="441.666" y="-20.9962" width="5.59899" height="478.714" fill="white" fill-opacity="0.03"/>
<rect x="452.864" y="-20.9962" width="5.59899" height="478.714" fill="white" fill-opacity="0.03"/>
<rect x="464.062" y="-20.9962" width="5.59899" height="478.714" fill="white" fill-opacity="0.03"/>
<rect x="475.26" y="-20.9962" width="5.59899" height="478.714" fill="white" fill-opacity="0.03"/>
<rect x="486.458" y="-20.9962" width="5.59899" height="478.714" fill="white" fill-opacity="0.03"/>
<rect x="497.656" y="-20.9962" width="5.59899" height="478.714" fill="white" fill-opacity="0.03"/>
<rect x="508.854" y="-20.9962" width="5.59899" height="478.714" fill="white" fill-opacity="0.03"/>
<rect x="520.052" y="-20.9962" width="5.59899" height="478.714" fill="white" fill-opacity="0.03"/>
<rect x="531.25" y="-20.9962" width="5.59899" height="478.714" fill="white" fill-opacity="0.03"/>
<rect x="542.448" y="-20.9962" width="5.59899" height="478.714" fill="white" fill-opacity="0.03"/>
<rect x="553.646" y="-20.9962" width="5.59899" height="478.714" fill="white" fill-opacity="0.03"/>
<rect x="564.843" y="-20.9962" width="5.59899" height="478.714" fill="white" fill-opacity="0.03"/>
<rect x="576.042" y="-20.9962" width="5.59899" height="478.714" fill="white" fill-opacity="0.03"/>
<rect x="587.239" y="-20.9962" width="5.59899" height="478.714" fill="white" fill-opacity="0.03"/>
<rect x="598.438" y="-20.9962" width="5.59899" height="478.714" fill="white" fill-opacity="0.03"/>
<rect x="609.635" y="-20.9962" width="5.59899" height="478.714" fill="white" fill-opacity="0.03"/>
<rect x="620.833" y="-20.9962" width="5.59899" height="478.714" fill="white" fill-opacity="0.03"/>
<rect x="632.031" y="-20.9962" width="5.59899" height="478.714" fill="white" fill-opacity="0.03"/>
<rect x="643.229" y="-20.9962" width="5.59899" height="478.714" fill="white" fill-opacity="0.03"/>
<rect x="654.427" y="-20.9962" width="5.59899" height="478.714" fill="white" fill-opacity="0.03"/>
<rect x="665.625" y="-20.9962" width="5.59899" height="478.714" fill="white" fill-opacity="0.03"/>
<rect x="676.823" y="-20.9962" width="5.59899" height="478.714" fill="white" fill-opacity="0.03"/>
<rect x="688.021" y="-20.9962" width="5.59899" height="478.714" fill="white" fill-opacity="0.03"/>
<rect x="699.219" y="-20.9962" width="5.59899" height="478.714" fill="white" fill-opacity="0.03"/>
<rect x="710.417" y="-20.9962" width="5.59899" height="478.714" fill="white" fill-opacity="0.03"/>
<rect x="721.615" y="-20.9962" width="5.59899" height="478.714" fill="white" fill-opacity="0.03"/>
<rect x="732.813" y="-20.9962" width="5.59899" height="478.714" fill="white" fill-opacity="0.03"/>
<rect x="744.011" y="-20.9962" width="5.59899" height="478.714" fill="white" fill-opacity="0.03"/>
<rect x="755.209" y="-20.9962" width="5.59899" height="478.714" fill="white" fill-opacity="0.03"/>
<rect x="766.407" y="-20.9962" width="5.59899" height="478.714" fill="white" fill-opacity="0.03"/>
<rect x="777.605" y="-20.9962" width="5.59899" height="478.714" fill="white" fill-opacity="0.03"/>
<rect x="788.803" y="-20.9962" width="5.59899" height="478.714" fill="white" fill-opacity="0.03"/>
<rect x="800.001" y="-20.9962" width="5.59899" height="478.714" fill="white" fill-opacity="0.03"/>
</g>
</g>
<g style="mix-blend-mode:screen">
<mask id="mask1_113_1429" style="mask-type:alpha" maskUnits="userSpaceOnUse" x="0" y="75" width="807" height="438">
<ellipse cx="403.872" cy="293.69" rx="403.127" ry="218.361" fill="white"/>
</mask>
<g mask="url(#mask1_113_1429)">
<rect x="4.94434" y="54.3331" width="5.59899" height="478.714" fill="white" fill-opacity="0.03"/>
<rect x="16.1421" y="54.3331" width="5.59899" height="478.714" fill="white" fill-opacity="0.03"/>
<rect x="27.3401" y="54.3331" width="5.59899" height="478.714" fill="white" fill-opacity="0.03"/>
<rect x="38.5381" y="54.3331" width="5.59899" height="478.714" fill="white" fill-opacity="0.03"/>
<rect x="49.7361" y="54.3331" width="5.59899" height="478.714" fill="white" fill-opacity="0.03"/>
<rect x="60.9341" y="54.3331" width="5.59899" height="478.714" fill="white" fill-opacity="0.03"/>
<rect x="72.1321" y="54.3331" width="5.59899" height="478.714" fill="white" fill-opacity="0.03"/>
<rect x="83.3301" y="54.3331" width="5.59899" height="478.714" fill="white" fill-opacity="0.03"/>
<rect x="94.5281" y="54.3331" width="5.59899" height="478.714" fill="white" fill-opacity="0.03"/>
<rect x="105.726" y="54.3331" width="5.59899" height="478.714" fill="white" fill-opacity="0.03"/>
<rect x="116.924" y="54.3331" width="5.59899" height="478.714" fill="white" fill-opacity="0.03"/>
<rect x="128.122" y="54.3331" width="5.59899" height="478.714" fill="white" fill-opacity="0.03"/>
<rect x="139.32" y="54.3331" width="5.59899" height="478.714" fill="white" fill-opacity="0.03"/>
<rect x="150.518" y="54.3331" width="5.59899" height="478.714" fill="white" fill-opacity="0.03"/>
<rect x="161.716" y="54.3331" width="5.59899" height="478.714" fill="white" fill-opacity="0.03"/>
<rect x="172.914" y="54.3331" width="5.59899" height="478.714" fill="white" fill-opacity="0.03"/>
<rect x="184.112" y="54.3331" width="5.59899" height="478.714" fill="white" fill-opacity="0.03"/>
<rect x="195.31" y="54.3331" width="5.59899" height="478.714" fill="white" fill-opacity="0.03"/>
<rect x="206.508" y="54.3331" width="5.59899" height="478.714" fill="white" fill-opacity="0.03"/>
<rect x="217.706" y="54.3331" width="5.59899" height="478.714" fill="white" fill-opacity="0.03"/>
<rect x="228.904" y="54.3331" width="5.59899" height="478.714" fill="white" fill-opacity="0.03"/>
<rect x="240.102" y="54.3331" width="5.59899" height="478.714" fill="white" fill-opacity="0.03"/>
<rect x="251.3" y="54.3331" width="5.59899" height="478.714" fill="white" fill-opacity="0.03"/>
<rect x="262.498" y="54.3331" width="5.59899" height="478.714" fill="white" fill-opacity="0.03"/>
<rect x="273.696" y="54.3331" width="5.59899" height="478.714" fill="white" fill-opacity="0.03"/>
<rect x="284.894" y="54.3331" width="5.59899" height="478.714" fill="white" fill-opacity="0.03"/>
<rect x="296.092" y="54.3331" width="5.59899" height="478.714" fill="white" fill-opacity="0.03"/>
<rect x="307.29" y="54.3331" width="5.59899" height="478.714" fill="white" fill-opacity="0.03"/>
<rect x="318.488" y="54.3331" width="5.59899" height="478.714" fill="white" fill-opacity="0.03"/>
<rect x="329.686" y="54.3331" width="5.59899" height="478.714" fill="white" fill-opacity="0.03"/>
<rect x="340.884" y="54.3331" width="5.59899" height="478.714" fill="white" fill-opacity="0.03"/>
<rect x="352.082" y="54.3331" width="5.59899" height="478.714" fill="white" fill-opacity="0.03"/>
<rect x="363.28" y="54.3331" width="5.59899" height="478.714" fill="white" fill-opacity="0.03"/>
<rect x="374.478" y="54.3331" width="5.59899" height="478.714" fill="white" fill-opacity="0.03"/>
<rect x="385.676" y="54.3331" width="5.59899" height="478.714" fill="white" fill-opacity="0.03"/>
<rect x="396.874" y="54.3331" width="5.59899" height="478.714" fill="white" fill-opacity="0.03"/>
<rect x="408.072" y="54.3331" width="5.59899" height="478.714" fill="white" fill-opacity="0.03"/>
<rect x="419.27" y="54.3331" width="5.59899" height="478.714" fill="white" fill-opacity="0.03"/>
<rect x="430.468" y="54.3331" width="5.59899" height="478.714" fill="white" fill-opacity="0.03"/>
<rect x="441.666" y="54.3331" width="5.59899" height="478.714" fill="white" fill-opacity="0.03"/>
<rect x="452.864" y="54.3331" width="5.59899" height="478.714" fill="white" fill-opacity="0.03"/>
<rect x="464.062" y="54.3331" width="5.59899" height="478.714" fill="white" fill-opacity="0.03"/>
<rect x="475.26" y="54.3331" width="5.59899" height="478.714" fill="white" fill-opacity="0.03"/>
<rect x="486.458" y="54.3331" width="5.59899" height="478.714" fill="white" fill-opacity="0.03"/>
<rect x="497.656" y="54.3331" width="5.59899" height="478.714" fill="white" fill-opacity="0.03"/>
<rect x="508.854" y="54.3331" width="5.59899" height="478.714" fill="white" fill-opacity="0.03"/>
<rect x="520.052" y="54.3331" width="5.59899" height="478.714" fill="white" fill-opacity="0.03"/>
<rect x="531.25" y="54.3331" width="5.59899" height="478.714" fill="white" fill-opacity="0.03"/>
<rect x="542.448" y="54.3331" width="5.59899" height="478.714" fill="white" fill-opacity="0.03"/>
<rect x="553.646" y="54.3331" width="5.59899" height="478.714" fill="white" fill-opacity="0.03"/>
<rect x="564.843" y="54.3331" width="5.59899" height="478.714" fill="white" fill-opacity="0.03"/>
<rect x="576.042" y="54.3331" width="5.59899" height="478.714" fill="white" fill-opacity="0.03"/>
<rect x="587.239" y="54.3331" width="5.59899" height="478.714" fill="white" fill-opacity="0.03"/>
<rect x="598.438" y="54.3331" width="5.59899" height="478.714" fill="white" fill-opacity="0.03"/>
<rect x="609.635" y="54.3331" width="5.59899" height="478.714" fill="white" fill-opacity="0.03"/>
<rect x="620.833" y="54.3331" width="5.59899" height="478.714" fill="white" fill-opacity="0.03"/>
<rect x="632.031" y="54.3331" width="5.59899" height="478.714" fill="white" fill-opacity="0.03"/>
<rect x="643.229" y="54.3331" width="5.59899" height="478.714" fill="white" fill-opacity="0.03"/>
<rect x="654.427" y="54.3331" width="5.59899" height="478.714" fill="white" fill-opacity="0.03"/>
<rect x="665.625" y="54.3331" width="5.59899" height="478.714" fill="white" fill-opacity="0.03"/>
<rect x="676.823" y="54.3331" width="5.59899" height="478.714" fill="white" fill-opacity="0.03"/>
<rect x="688.021" y="54.3331" width="5.59899" height="478.714" fill="white" fill-opacity="0.03"/>
<rect x="699.219" y="54.3331" width="5.59899" height="478.714" fill="white" fill-opacity="0.03"/>
<rect x="710.417" y="54.3331" width="5.59899" height="478.714" fill="white" fill-opacity="0.03"/>
<rect x="721.615" y="54.3331" width="5.59899" height="478.714" fill="white" fill-opacity="0.03"/>
<rect x="732.813" y="54.3331" width="5.59899" height="478.714" fill="white" fill-opacity="0.03"/>
<rect x="744.011" y="54.3331" width="5.59899" height="478.714" fill="white" fill-opacity="0.03"/>
<rect x="755.209" y="54.3331" width="5.59899" height="478.714" fill="white" fill-opacity="0.03"/>
<rect x="766.407" y="54.3331" width="5.59899" height="478.714" fill="white" fill-opacity="0.03"/>
<rect x="777.605" y="54.3331" width="5.59899" height="478.714" fill="white" fill-opacity="0.03"/>
<rect x="788.803" y="54.3331" width="5.59899" height="478.714" fill="white" fill-opacity="0.03"/>
<rect x="800.001" y="54.3331" width="5.59899" height="478.714" fill="white" fill-opacity="0.03"/>
</g>
</g>
</svg>
