<svg width="868" height="406" viewBox="0 0 868 406" fill="none" xmlns="http://www.w3.org/2000/svg">
<path d="M481.108 286.23C483.644 283.864 486.264 281.666 488.969 279.637C491.674 277.609 494.547 275.918 497.59 274.566C500.718 273.129 504.056 272.03 507.606 271.27C511.241 270.424 515.171 270.002 519.397 270.002C526.582 270.002 532.921 271.27 538.415 273.805C543.994 276.257 548.685 279.722 552.489 284.202C556.292 288.597 559.166 293.88 561.11 300.05C563.054 306.136 564.026 312.771 564.026 319.956V403.508H524.723V319.956C524.723 313.532 523.243 308.545 520.285 304.995C517.327 301.36 512.974 299.543 507.226 299.543C502.915 299.543 498.858 300.473 495.055 302.332C491.335 304.107 487.701 306.558 484.151 309.686V403.508H444.847V272.03H469.19C474.093 272.03 477.304 274.228 478.826 278.623L481.108 286.23Z" fill="white" fill-opacity="0.09"/>
<path d="M358.112 270.002C368.086 270.002 377.172 271.565 385.371 274.693C393.57 277.82 400.586 282.3 406.418 288.132C412.334 293.964 416.899 301.064 420.111 309.432C423.407 317.716 425.055 327.056 425.055 337.452C425.055 347.933 423.407 357.4 420.111 365.852C416.899 374.22 412.334 381.362 406.418 387.279C400.586 393.111 393.57 397.633 385.371 400.845C377.172 403.973 368.086 405.536 358.112 405.536C348.054 405.536 338.883 403.973 330.6 400.845C322.401 397.633 315.301 393.111 309.299 387.279C303.383 381.362 298.776 374.22 295.48 365.852C292.268 357.4 290.662 347.933 290.662 337.452C290.662 327.056 292.268 317.716 295.48 309.432C298.776 301.064 303.383 293.964 309.299 288.132C315.301 282.3 322.401 277.82 330.6 274.693C338.883 271.565 348.054 270.002 358.112 270.002ZM358.112 376.375C367.156 376.375 373.791 373.206 378.018 366.866C382.328 360.443 384.484 350.722 384.484 337.706C384.484 324.689 382.328 315.011 378.018 308.672C373.791 302.332 367.156 299.163 358.112 299.163C348.814 299.163 342.01 302.332 337.7 308.672C333.389 315.011 331.233 324.689 331.233 337.706C331.233 350.722 333.389 360.443 337.7 366.866C342.01 373.206 348.814 376.375 358.112 376.375Z" fill="white" fill-opacity="0.09"/>
<path d="M210.773 270.002C220.746 270.002 229.833 271.565 238.032 274.693C246.23 277.82 253.246 282.3 259.078 288.132C264.995 293.964 269.559 301.064 272.771 309.432C276.067 317.716 277.716 327.056 277.716 337.452C277.716 347.933 276.067 357.4 272.771 365.852C269.559 374.22 264.995 381.362 259.078 387.279C253.246 393.111 246.23 397.633 238.032 400.845C229.833 403.973 220.746 405.536 210.773 405.536C200.714 405.536 191.543 403.973 183.26 400.845C175.061 397.633 167.961 393.111 161.96 387.279C156.043 381.362 151.437 374.22 148.14 365.852C144.928 357.4 143.322 347.933 143.322 337.452C143.322 327.056 144.928 317.716 148.14 309.432C151.437 301.064 156.043 293.964 161.96 288.132C167.961 282.3 175.061 277.82 183.26 274.693C191.543 271.565 200.714 270.002 210.773 270.002ZM210.773 376.375C219.817 376.375 226.452 373.206 230.678 366.866C234.989 360.443 237.144 350.722 237.144 337.706C237.144 324.689 234.989 315.011 230.678 308.672C226.452 302.332 219.817 299.163 210.773 299.163C201.475 299.163 194.671 302.332 190.36 308.672C186.049 315.011 183.894 324.689 183.894 337.706C183.894 350.722 186.049 360.443 190.36 366.866C194.671 373.206 201.475 376.375 210.773 376.375Z" fill="white" fill-opacity="0.09"/>
<path d="M116.39 256.309C115.122 258.337 113.77 259.859 112.333 260.873C110.98 261.887 109.205 262.394 107.008 262.394C105.064 262.394 102.95 261.803 100.668 260.619C98.4706 259.351 95.9349 257.957 93.0611 256.435C90.2718 254.914 87.0599 253.561 83.4253 252.378C79.7908 251.11 75.6491 250.476 71.0003 250.476C62.9705 250.476 56.9693 252.209 52.9966 255.675C49.1085 259.056 47.1645 263.662 47.1645 269.494C47.1645 273.213 48.3478 276.298 50.7145 278.75C53.0812 281.201 56.1663 283.314 59.9699 285.089C63.858 286.864 68.2533 288.512 73.1557 290.034C78.1426 291.471 83.214 293.119 88.37 294.978C93.526 296.753 98.5552 298.866 103.458 301.318C108.444 303.769 112.84 306.896 116.643 310.7C120.531 314.503 123.659 319.152 126.026 324.646C128.392 330.056 129.576 336.606 129.576 344.298C129.576 352.835 128.096 360.823 125.138 368.261C122.18 375.699 117.869 382.207 112.206 387.786C106.627 393.28 99.6963 397.633 91.4129 400.845C83.214 403.972 73.8741 405.536 63.3931 405.536C57.6455 405.536 51.771 404.944 45.7698 403.761C39.8531 402.578 34.1055 400.929 28.5269 398.816C22.9483 396.619 17.7078 394.041 12.8054 391.082C7.90301 388.124 3.63454 384.828 0 381.193L12.6786 361.161C13.6929 359.724 15.003 358.54 16.609 357.611C18.2995 356.596 20.1168 356.089 22.0608 356.089C24.5965 356.089 27.1323 356.892 29.668 358.498C32.2882 360.104 35.2043 361.879 38.4162 363.823C41.7127 365.767 45.474 367.542 49.7002 369.148C53.9264 370.754 58.9133 371.557 64.661 371.557C72.4372 371.557 78.4807 369.867 82.7914 366.486C87.1022 363.02 89.2575 357.568 89.2575 350.13C89.2575 345.82 88.0742 342.312 85.7075 339.607C83.3408 336.902 80.2134 334.662 76.3253 332.887C72.5217 331.112 68.1687 329.549 63.2663 328.196C58.3639 326.844 53.3347 325.365 48.1788 323.759C43.0228 322.068 37.9936 320.04 33.0912 317.673C28.1888 315.222 23.7936 312.052 19.9054 308.164C16.1019 304.191 13.0167 299.289 10.65 293.457C8.28337 287.54 7.10003 280.271 7.10003 271.65C7.10003 264.719 8.49468 257.957 11.284 251.364C14.0733 244.771 18.1727 238.897 23.5822 233.741C28.9918 228.585 35.6269 224.485 43.4877 221.442C51.3484 218.315 60.3503 216.751 70.4932 216.751C76.1563 216.751 81.6503 217.216 86.9754 218.146C92.3849 218.991 97.4986 220.301 102.316 222.076C107.134 223.767 111.614 225.838 115.756 228.289C119.982 230.655 123.743 233.36 127.04 236.403L116.39 256.309Z" fill="white" fill-opacity="0.09"/>
<path d="M798.523 117.936C805.031 117.936 809.722 116.33 812.596 113.119C815.554 109.822 817.034 105.596 817.034 100.44C817.034 95.1149 815.554 90.9309 812.596 87.8881C809.722 84.8452 805.031 83.3238 798.523 83.3238C792.014 83.3238 787.281 84.8452 784.323 87.8881C781.449 90.9309 780.012 95.1149 780.012 100.44C780.012 102.976 780.35 105.3 781.026 107.413C781.787 109.526 782.928 111.386 784.449 112.992C785.971 114.513 787.873 115.739 790.155 116.669C792.522 117.514 795.311 117.936 798.523 117.936ZM828.951 195.403C828.951 192.275 827.557 190.036 824.768 188.683C821.978 187.246 818.344 186.232 813.864 185.64C809.384 185.049 804.355 184.71 798.776 184.626C793.282 184.457 787.788 184.119 782.294 183.612C779.843 185.302 777.814 187.204 776.208 189.317C774.687 191.346 773.926 193.67 773.926 196.29C773.926 198.15 774.307 199.84 775.067 201.362C775.913 202.883 777.349 204.193 779.378 205.292C781.407 206.391 784.111 207.236 787.492 207.828C790.958 208.504 795.311 208.842 800.551 208.842C806.214 208.842 810.863 208.504 814.498 207.828C818.132 207.152 821.006 206.222 823.119 205.039C825.317 203.855 826.838 202.418 827.684 200.728C828.529 199.122 828.951 197.347 828.951 195.403ZM867.748 63.1648V77.4916C867.748 79.6892 867.114 81.422 865.846 82.6898C864.663 83.9577 862.592 84.9297 859.634 85.6059L850.125 87.7613C850.632 89.6208 851.012 91.5226 851.266 93.4667C851.604 95.4107 851.773 97.4393 851.773 99.5524C851.773 106.145 850.378 112.062 847.589 117.302C844.884 122.543 841.123 127.023 836.305 130.742C831.572 134.376 825.951 137.208 819.442 139.236C812.934 141.181 805.961 142.153 798.523 142.153C796.494 142.153 794.508 142.11 792.564 142.026C790.62 141.857 788.718 141.603 786.858 141.265C783.985 143.04 782.548 145.026 782.548 147.224C782.548 149.422 783.731 151.028 786.098 152.042C788.464 152.972 791.592 153.648 795.48 154.07C799.368 154.409 803.763 154.662 808.666 154.831C813.653 154.916 818.724 155.212 823.88 155.719C829.036 156.141 834.065 156.902 838.968 158.001C843.955 159.1 848.392 160.875 852.28 163.326C856.168 165.777 859.296 169.074 861.662 173.215C864.029 177.272 865.212 182.471 865.212 188.81C865.212 194.727 863.775 200.517 860.902 206.18C858.028 211.843 853.802 216.872 848.223 221.267C842.644 225.662 835.798 229.17 827.684 231.79C819.569 234.495 810.272 235.848 799.791 235.848C789.479 235.848 780.561 234.876 773.039 232.932C765.601 230.987 759.388 228.41 754.401 225.198C749.499 222.07 745.864 218.436 743.498 214.294C741.131 210.152 739.948 205.842 739.948 201.362C739.948 195.53 741.638 190.669 745.019 186.781C748.4 182.893 753.133 179.766 759.219 177.399C756.007 175.455 753.471 172.962 751.612 169.919C749.752 166.876 748.823 162.946 748.823 158.128C748.823 156.184 749.161 154.155 749.837 152.042C750.513 149.844 751.57 147.731 753.007 145.703C754.528 143.59 756.387 141.603 758.585 139.744C760.783 137.884 763.403 136.236 766.446 134.799C759.599 131.164 754.19 126.389 750.217 120.472C746.245 114.471 744.258 107.498 744.258 99.5524C744.258 92.9595 745.653 87.0428 748.442 81.8023C751.231 76.4773 755.035 71.9975 759.853 68.363C764.755 64.6439 770.503 61.8124 777.096 59.8683C783.689 57.8397 790.831 56.8254 798.523 56.8254C809.68 56.8254 819.569 58.9385 828.191 63.1648H867.748Z" fill="white" fill-opacity="0.09"/>
<path d="M640.086 73.3085C642.622 70.9418 645.242 68.7442 647.947 66.7156C650.652 64.687 653.525 62.9965 656.568 61.6441C659.696 60.2072 663.034 59.1084 666.584 58.3477C670.219 57.5025 674.149 57.0798 678.375 57.0798C685.56 57.0798 691.899 58.3477 697.393 60.8834C702.972 63.3346 707.663 66.8001 711.467 71.2799C715.27 75.6752 718.144 80.9579 720.088 87.1282C722.032 93.2139 723.004 99.8491 723.004 107.034V190.586H683.701V107.034C683.701 100.61 682.221 95.6229 679.263 92.0728C676.305 88.4383 671.952 86.621 666.204 86.621C661.893 86.621 657.836 87.5508 654.033 89.4103C650.313 91.1853 646.679 93.6366 643.129 96.7639V190.586H603.825V59.1084H628.168C633.071 59.1084 636.282 61.306 637.804 65.7013L640.086 73.3085Z" fill="white" fill-opacity="0.09"/>
<path d="M576.414 59.1078V190.585H537.11V59.1078H576.414ZM580.471 23.1005C580.471 26.2279 579.837 29.1862 578.569 31.9755C577.302 34.6803 575.569 37.0892 573.371 39.2023C571.174 41.2309 568.596 42.8791 565.637 44.147C562.763 45.3303 559.678 45.922 556.382 45.922C553.17 45.922 550.169 45.3303 547.38 44.147C544.591 42.8791 542.097 41.2309 539.9 39.2023C537.787 37.0892 536.096 34.6803 534.828 31.9755C533.645 29.1862 533.053 26.2279 533.053 23.1005C533.053 19.8886 533.645 16.888 534.828 14.0987C536.096 11.3094 537.787 8.85817 539.9 6.74506C542.097 4.63196 544.591 2.98373 547.38 1.80039C550.169 0.617057 553.17 0.0253906 556.382 0.0253906C559.678 0.0253906 562.763 0.617057 565.637 1.80039C568.596 2.98373 571.174 4.63196 573.371 6.74506C575.569 8.85817 577.302 11.3094 578.569 14.0987C579.837 16.888 580.471 19.8886 580.471 23.1005Z" fill="white" fill-opacity="0.09"/>
<path d="M320.537 190.586V59.1084H344.88C349.783 59.1084 352.995 61.306 354.516 65.7013L356.671 72.8013C358.869 70.5192 361.151 68.4483 363.518 66.5888C365.885 64.6448 368.42 62.9965 371.125 61.6441C373.914 60.2072 376.873 59.1084 380 58.3477C383.212 57.5025 386.72 57.0798 390.523 57.0798C398.469 57.0798 405.019 59.1507 410.175 63.2924C415.416 67.3495 419.388 72.8013 422.093 79.6478C424.291 75.5906 426.953 72.1251 430.081 69.2513C433.293 66.3775 436.716 64.0531 440.35 62.2781C444.069 60.5031 447.958 59.1929 452.015 58.3477C456.156 57.5025 460.256 57.0798 464.313 57.0798C471.836 57.0798 478.513 58.2209 484.345 60.5031C490.177 62.7007 495.037 65.9549 498.926 70.2656C502.898 74.4918 505.899 79.7323 507.927 85.9871C509.956 92.1574 510.97 99.1729 510.97 107.034V190.586H471.667V107.034C471.667 93.4252 465.834 86.621 454.17 86.621C448.845 86.621 444.408 88.396 440.857 91.9461C437.392 95.4115 435.659 100.441 435.659 107.034V190.586H396.356V107.034C396.356 99.511 394.876 94.2282 391.918 91.1853C388.96 88.1425 384.607 86.621 378.859 86.621C375.309 86.621 371.928 87.424 368.716 89.03C365.589 90.6359 362.63 92.7913 359.841 95.4961V190.586H320.537Z" fill="white" fill-opacity="0.09"/>
<path d="M233.802 57.0798C243.776 57.0798 252.862 58.6435 261.061 61.7709C269.26 64.8983 276.275 69.3781 282.108 75.2103C288.024 81.0424 292.589 88.1425 295.801 96.5104C299.097 104.794 300.745 114.134 300.745 124.53C300.745 135.011 299.097 144.478 295.801 152.93C292.589 161.298 288.024 168.44 282.108 174.357C276.275 180.189 269.26 184.711 261.061 187.923C252.862 191.051 243.776 192.614 233.802 192.614C223.744 192.614 214.573 191.051 206.289 187.923C198.091 184.711 190.991 180.189 184.989 174.357C179.073 168.44 174.466 161.298 171.17 152.93C167.958 144.478 166.352 135.011 166.352 124.53C166.352 114.134 167.958 104.794 171.17 96.5104C174.466 88.1425 179.073 81.0424 184.989 75.2103C190.991 69.3781 198.091 64.8983 206.289 61.7709C214.573 58.6435 223.744 57.0798 233.802 57.0798ZM233.802 163.453C242.846 163.453 249.481 160.284 253.708 153.945C258.018 147.521 260.174 137.8 260.174 124.784C260.174 111.767 258.018 102.089 253.708 95.7496C249.481 89.4103 242.846 86.2407 233.802 86.2407C224.504 86.2407 217.7 89.4103 213.39 95.7496C209.079 102.089 206.923 111.767 206.923 124.784C206.923 137.8 209.079 147.521 213.39 153.945C217.7 160.284 224.504 163.453 233.802 163.453Z" fill="white" fill-opacity="0.09"/>
<path d="M138.832 142.787C139.846 142.787 140.861 142.998 141.875 143.421C142.889 143.759 143.861 144.393 144.791 145.323L161.78 163.2C154.342 172.92 145.002 180.274 133.761 185.26C122.603 190.163 109.375 192.614 94.0766 192.614C80.0456 192.614 67.4515 190.247 56.2943 185.514C45.2216 180.696 35.7972 174.103 28.021 165.735C20.3293 157.283 14.4126 147.309 10.2709 135.814C6.12919 124.234 4.05835 111.682 4.05835 98.1583C4.05835 84.3809 6.29824 71.7445 10.778 60.2492C15.2578 48.6694 21.5549 38.6956 29.6692 30.3277C37.7835 21.9598 47.5038 15.4514 58.83 10.8026C70.1562 6.15376 82.6236 3.82935 96.2319 3.82935C103.163 3.82935 109.671 4.46327 115.757 5.73114C121.927 6.91447 127.675 8.60495 133 10.8026C138.325 12.9157 143.227 15.4937 147.707 18.5365C152.187 21.5794 156.16 24.8759 159.625 28.4259L145.171 47.8242C144.242 49.0075 143.143 50.1063 141.875 51.1206C140.607 52.0504 138.832 52.5153 136.55 52.5153C135.029 52.5153 133.592 52.1772 132.239 51.501C130.887 50.8248 129.45 50.0218 127.929 49.092C126.407 48.0777 124.717 47.0212 122.857 45.9224C121.082 44.739 118.927 43.6825 116.391 42.7527C113.94 41.7384 111.024 40.8932 107.643 40.217C104.346 39.5408 100.458 39.2027 95.9784 39.2027C88.8783 39.2027 82.37 40.5128 76.4533 43.1331C70.6211 45.7533 65.5497 49.5992 61.2389 54.6706C57.0127 59.6575 53.7163 65.8278 51.3496 73.1814C49.0675 80.4505 47.9264 88.7761 47.9264 98.1583C47.9264 107.625 49.1943 116.035 51.73 123.389C54.3502 130.742 57.858 136.955 62.2532 142.026C66.733 147.013 71.9313 150.817 77.8479 153.437C83.7646 156.057 90.1039 157.367 96.8659 157.367C100.754 157.367 104.304 157.198 107.516 156.86C110.728 156.438 113.728 155.804 116.518 154.959C119.307 154.029 121.927 152.845 124.378 151.409C126.83 149.887 129.323 147.985 131.859 145.703C132.873 144.858 133.972 144.182 135.155 143.675C136.339 143.083 137.564 142.787 138.832 142.787Z" fill="white" fill-opacity="0.09"/>
</svg>
