<svg width="21" height="21" viewBox="0 0 21 21" fill="none" xmlns="http://www.w3.org/2000/svg">
<path d="M0.00120995 16.8918C0.00505854 16.2096 0.225168 15.5461 0.62989 14.9968C1.03461 14.4475 1.60309 14.0407 2.2536 13.8349C3.96484 13.2543 5.47897 12.3656 6.70103 11.0019C7.67507 9.89804 8.35324 8.56514 8.6721 7.12789C8.90098 6.04663 8.97698 4.9386 8.89787 3.83622C8.8312 2.98445 9.07779 2.13763 9.59133 1.45481C9.99414 0.923552 10.5494 0.527779 11.183 0.320312C11.8166 0.112845 12.4984 0.103552 13.1375 0.293675C14.3344 0.621589 15.2644 1.74151 15.4185 3.03704C15.5977 4.58163 14.7018 5.9578 13.1446 6.48819C11.565 6.99881 10.1304 7.87983 8.96059 9.05774C7.92269 10.1259 7.18152 11.4464 6.81034 12.8888C6.5015 14.0963 6.38956 15.3458 6.47884 16.589C6.60786 18.6801 4.988 20.3 2.96497 20.1477C2.14591 20.0933 1.37972 19.7239 0.827147 19.1168C0.274575 18.5098 -0.0214372 17.7124 0.00120995 16.8918Z" fill="#E5E5E6"/>
<path d="M17.165 19.7571C16.5892 19.7595 16.0255 19.5911 15.5455 19.2731C15.0654 18.9551 14.6904 18.5018 14.4681 17.9706C14.2458 17.4394 14.186 16.8542 14.2965 16.289C14.4069 15.7239 14.6825 15.2042 15.0885 14.7957C15.4944 14.3873 16.0124 14.1085 16.5768 13.9946C17.1413 13.8807 17.7269 13.9368 18.2594 14.1558C18.792 14.3749 19.2476 14.747 19.5685 15.2251C19.8895 15.7032 20.0614 16.2658 20.0625 16.8417C20.0663 17.2241 19.9941 17.6034 19.85 17.9577C19.706 18.3119 19.493 18.634 19.2234 18.9053C18.9538 19.1765 18.633 19.3915 18.2797 19.5377C17.9263 19.6839 17.5474 19.7585 17.165 19.7571Z" fill="#E5E5E6"/>
</svg>
