<svg width="1441" height="260" viewBox="0 0 1441 260" fill="none" xmlns="http://www.w3.org/2000/svg">
<path d="M1436.02 114.389L1394.91 118.874C1393.75 114.721 1391.72 110.818 1388.81 107.163C1385.99 103.509 1382.16 100.561 1377.35 98.3182C1372.53 96.0758 1366.63 94.9546 1359.66 94.9546C1350.27 94.9546 1342.38 96.9894 1335.99 101.059C1329.68 105.129 1326.56 110.402 1326.64 116.881C1326.56 122.445 1328.6 126.971 1332.75 130.46C1336.98 133.948 1343.96 136.813 1353.68 139.056L1386.32 146.032C1404.42 149.936 1417.88 156.123 1426.68 164.594C1435.57 173.066 1440.05 184.153 1440.14 197.857C1440.05 209.9 1436.52 220.53 1429.55 229.749C1422.65 238.885 1413.06 246.028 1400.77 251.177C1388.48 256.326 1374.36 258.901 1358.41 258.901C1334.99 258.901 1316.14 254.001 1301.85 244.2C1287.57 234.317 1279.05 220.572 1276.31 202.965L1320.29 198.729C1322.28 207.367 1326.52 213.886 1333 218.288C1339.48 222.69 1347.91 224.891 1358.29 224.891C1369 224.891 1377.6 222.69 1384.07 218.288C1390.64 213.886 1393.92 208.446 1393.92 201.968C1393.92 196.487 1391.8 191.96 1387.56 188.389C1383.41 184.818 1376.93 182.077 1368.13 180.167L1335.49 173.315C1317.13 169.494 1303.56 163.058 1294.75 154.005C1285.95 144.869 1281.59 133.325 1281.67 119.372C1281.59 107.579 1284.79 97.3631 1291.26 88.7256C1297.82 80.0051 1306.92 73.2778 1318.55 68.5438C1330.26 63.7268 1343.75 61.3182 1359.03 61.3182C1381.46 61.3182 1399.11 66.0938 1411.98 75.6448C1424.94 85.1959 1432.95 98.1106 1436.02 114.389Z" fill="white" fill-opacity="0.09"/>
<path d="M1161.55 258.901C1142.36 258.901 1125.79 254.914 1111.84 246.941C1097.97 238.885 1087.3 227.507 1079.82 212.806C1072.35 198.023 1068.61 180.624 1068.61 160.608C1068.61 140.924 1072.35 123.649 1079.82 108.783C1087.38 93.8334 1097.93 82.206 1111.46 73.9007C1125 65.5124 1140.91 61.3182 1159.18 61.3182C1170.97 61.3182 1182.1 63.2284 1192.57 67.0489C1203.11 70.7862 1212.41 76.5999 1220.47 84.49C1228.61 92.38 1235.01 102.429 1239.66 114.638C1244.31 126.764 1246.63 141.215 1246.63 157.992V171.82H1089.79V141.423H1203.4C1203.32 132.785 1201.45 125.103 1197.8 118.375C1194.14 111.565 1189.04 106.208 1182.47 102.305C1176 98.4013 1168.44 96.4496 1159.8 96.4496C1150.58 96.4496 1142.48 98.692 1135.51 103.177C1128.53 107.579 1123.09 113.392 1119.19 120.618C1115.37 127.76 1113.42 135.609 1113.33 144.163V170.699C1113.33 181.828 1115.37 191.379 1119.44 199.352C1123.51 207.242 1129.2 213.305 1136.5 217.541C1143.81 221.693 1152.37 223.769 1162.17 223.769C1168.73 223.769 1174.67 222.856 1179.98 221.029C1185.3 219.118 1189.91 216.336 1193.81 212.682C1197.71 209.028 1200.66 204.501 1202.66 199.103L1244.76 203.837C1242.11 214.966 1237.04 224.683 1229.57 232.988C1222.17 241.211 1212.71 247.606 1201.16 252.174C1189.62 256.658 1176.41 258.901 1161.55 258.901Z" fill="white" fill-opacity="0.09"/>
<path d="M945.618 255.163V63.8099H989.346V95.7022H991.339C994.827 84.6562 1000.81 76.1432 1009.28 70.1634C1017.83 64.1006 1027.59 61.0692 1038.55 61.0692C1041.05 61.0692 1043.83 61.1937 1046.9 61.4429C1050.06 61.609 1052.67 61.8997 1054.75 62.3149V103.8C1052.84 103.135 1049.81 102.554 1045.66 102.056C1041.59 101.474 1037.64 101.184 1033.82 101.184C1025.6 101.184 1018.21 102.969 1011.65 106.541C1005.17 110.029 1000.06 114.887 996.322 121.116C992.585 127.345 990.716 134.529 990.716 142.669V255.163H945.618Z" fill="white" fill-opacity="0.09"/>
<path d="M854.146 174.685V63.8099H899.244V255.164H855.516V221.153H853.523C849.204 231.867 842.103 240.629 832.22 247.44C822.42 254.25 810.336 257.655 795.968 257.655C783.427 257.655 772.339 254.873 762.705 249.308C753.154 243.661 745.679 235.48 740.281 224.766C734.882 213.969 732.183 200.93 732.183 185.648V63.8099H777.281V178.672C777.281 190.798 780.603 200.432 787.247 207.574C793.891 214.717 802.612 218.288 813.409 218.288C820.053 218.288 826.49 216.669 832.718 213.43C838.947 210.19 844.055 205.373 848.042 198.978C852.111 192.5 854.146 184.403 854.146 174.685Z" fill="white" fill-opacity="0.09"/>
<path d="M694.467 63.8099V98.6921H584.463V63.8099H694.467ZM611.621 17.9648H656.719V197.608C656.719 203.671 657.633 208.322 659.46 211.561C661.37 214.717 663.862 216.876 666.935 218.039C670.007 219.202 673.413 219.783 677.15 219.783C679.974 219.783 682.548 219.575 684.874 219.16C687.282 218.745 689.11 218.371 690.355 218.039L697.955 253.295C695.546 254.125 692.1 255.039 687.615 256.036C683.213 257.032 677.814 257.614 671.419 257.78C660.124 258.112 649.95 256.409 640.897 252.672C631.845 248.851 624.661 242.955 619.345 234.982C614.113 227.009 611.538 217.042 611.621 205.083V17.9648Z" fill="white" fill-opacity="0.09"/>
<path d="M452.534 259.025C440.408 259.025 429.487 256.866 419.769 252.547C410.135 248.145 402.494 241.667 396.847 233.113C391.282 224.558 388.5 214.011 388.5 201.47C388.5 190.673 390.493 181.745 394.48 174.685C398.466 167.626 403.906 161.978 410.8 157.743C417.693 153.507 425.458 150.309 434.096 148.15C442.817 145.907 451.828 144.288 461.13 143.291C472.342 142.129 481.436 141.09 488.412 140.177C495.389 139.18 500.455 137.685 503.611 135.692C506.85 133.616 508.47 130.418 508.47 126.099V125.352C508.47 115.967 505.687 108.7 500.123 103.551C494.558 98.4013 486.544 95.8267 476.079 95.8267C465.033 95.8267 456.271 98.2352 449.793 103.052C443.398 107.869 439.079 113.558 436.837 120.12L394.729 114.14C398.051 102.512 403.533 92.7952 411.173 84.9883C418.814 77.0983 428.158 71.2015 439.204 67.298C450.25 63.3115 462.459 61.3182 475.83 61.3182C485.049 61.3182 494.226 62.3979 503.362 64.5573C512.498 66.7167 520.845 70.2879 528.402 75.2711C535.96 80.1712 542.023 86.857 546.591 95.3283C551.242 103.8 553.567 114.389 553.567 127.096V255.163H510.214V228.877H508.719C505.978 234.193 502.116 239.176 497.133 243.827C492.233 248.395 486.045 252.09 478.571 254.914C471.179 257.655 462.5 259.025 452.534 259.025ZM464.244 225.887C473.297 225.887 481.145 224.102 487.79 220.53C494.434 216.876 499.542 212.059 503.113 206.079C506.767 200.099 508.594 193.58 508.594 186.52V163.971C507.182 165.134 504.774 166.214 501.369 167.211C498.047 168.207 494.309 169.079 490.157 169.827C486.004 170.574 481.893 171.239 477.823 171.82C473.754 172.401 470.224 172.9 467.234 173.315C460.507 174.228 454.485 175.723 449.17 177.8C443.855 179.876 439.661 182.783 436.588 186.52C433.515 190.175 431.978 194.909 431.978 200.722C431.978 209.028 435.01 215.298 441.072 219.534C447.135 223.769 454.859 225.887 464.244 225.887Z" fill="white" fill-opacity="0.09"/>
<path d="M274.23 258.901C255.045 258.901 238.476 254.914 224.523 246.941C210.653 238.885 199.981 227.507 192.506 212.806C185.031 198.023 181.294 180.624 181.294 160.608C181.294 140.924 185.031 123.649 192.506 108.783C200.064 93.8334 210.612 82.206 224.149 73.9007C237.687 65.5124 253.591 61.3182 271.863 61.3182C283.656 61.3182 294.786 63.2284 305.25 67.0489C315.798 70.7862 325.1 76.5999 333.156 84.49C341.295 92.38 347.69 102.429 352.341 114.638C356.992 126.764 359.318 141.215 359.318 157.992V171.82H202.472V141.423H316.089C316.006 132.785 314.137 125.103 310.483 118.375C306.828 111.565 301.72 106.208 295.159 102.305C288.681 98.4013 281.123 96.4496 272.486 96.4496C263.267 96.4496 255.169 98.692 248.193 103.177C241.217 107.579 235.777 113.392 231.873 120.618C228.053 127.76 226.101 135.609 226.018 144.163V170.699C226.018 181.828 228.053 191.379 232.122 199.352C236.192 207.242 241.881 213.305 249.19 217.541C256.498 221.693 265.053 223.769 274.853 223.769C281.414 223.769 287.352 222.856 292.668 221.029C297.983 219.118 302.592 216.336 306.496 212.682C310.399 209.028 313.348 204.501 315.341 199.103L357.449 203.837C354.791 214.966 349.725 224.683 342.25 232.988C334.859 241.211 325.39 247.606 313.846 252.174C302.302 256.658 289.096 258.901 274.23 258.901Z" fill="white" fill-opacity="0.09"/>
<path d="M0 255.164V0.0253906H163.448V38.7695H46.2189V108.036H152.236V146.78H46.2189V255.164H0Z" fill="white" fill-opacity="0.09"/>
</svg>
