<svg width="215" height="48" viewBox="0 0 215 48" fill="none" xmlns="http://www.w3.org/2000/svg">
<path d="M0.00290389 40.1622C0.0121405 38.5247 0.540404 36.9323 1.51174 35.614C2.48307 34.2958 3.84743 33.3195 5.40864 32.8255C9.51562 31.4322 13.1495 29.2991 16.0825 26.0264C18.4202 23.3771 20.0478 20.1781 20.813 16.7287C21.3624 14.1337 21.5448 11.4744 21.3549 8.8287C21.1949 6.78445 21.7867 4.75209 23.0192 3.11333C23.9859 1.8383 25.3186 0.888446 26.8392 0.390526C28.3599 -0.107394 29.9962 -0.129699 31.5299 0.326598C34.4026 1.11359 36.6346 3.8014 37.0044 6.91067C37.4345 10.6177 35.2842 13.9205 31.5471 15.1934C27.756 16.4189 24.313 18.5334 21.5054 21.3604C19.0145 23.9239 17.2357 27.0932 16.3448 30.5548C15.6036 33.4529 15.3349 36.4517 15.5492 39.4354C15.8589 44.4541 11.9712 48.3417 7.11594 47.9762C5.15019 47.8457 3.31133 46.9591 1.98515 45.5022C0.65898 44.0453 -0.0514493 42.1315 0.00290389 40.1622Z" fill="#E5E5E6"/>
<path d="M41.196 47.0387C39.814 47.0447 38.4613 46.6404 37.3091 45.8772C36.1569 45.114 35.257 44.0261 34.7234 42.7513C34.1898 41.4764 34.0465 40.0719 34.3115 38.7155C34.5765 37.3591 35.238 36.1118 36.2123 35.1316C37.1865 34.1513 38.4297 33.4821 39.7844 33.2088C41.1391 32.9354 42.5445 33.0701 43.8226 33.5958C45.1008 34.1215 46.1942 35.0146 46.9645 36.1621C47.7348 37.3096 48.1473 38.6597 48.1499 40.0418C48.159 40.9595 47.9857 41.87 47.64 42.7202C47.2943 43.5704 46.7831 44.3434 46.1361 44.9944C45.4892 45.6454 44.7193 46.1614 43.8712 46.5123C43.0231 46.8632 42.1138 47.0422 41.196 47.0387Z" fill="#E5E5E6"/>
<path d="M166.327 24.0409C166.327 27.676 166.327 31.3111 166.327 34.9407C166.327 35.6526 166.132 35.9169 165.41 35.8521C164.779 35.7982 164.137 35.8521 163.5 35.8521C162.594 35.8521 162.562 35.8252 162.551 34.8922C162.551 33.8135 162.551 32.7349 162.551 31.6562C162.551 30.2432 162.551 28.8248 162.551 27.4117C162.551 26.8724 162.357 26.662 161.807 26.662C158.032 26.662 154.256 26.662 150.481 26.662C149.856 26.662 149.672 26.9101 149.678 27.5088C149.678 30.0598 149.678 32.6054 149.678 35.1564C149.678 35.6958 149.516 35.9169 148.955 35.8845C148.13 35.8468 147.305 35.8576 146.479 35.8845C146.091 35.8845 145.902 35.7443 145.94 35.3452C145.94 35.2266 145.94 35.1079 145.94 34.9892C145.94 27.7029 145.94 20.4275 145.94 13.125C145.94 12.4185 146.118 12.1326 146.846 12.1973C147.482 12.2297 148.119 12.2297 148.755 12.1973C149.694 12.1973 149.694 12.1973 149.699 13.1519C149.699 15.863 149.699 18.5757 149.699 21.2904C149.699 23.2697 149.64 22.9083 151.317 22.9083C154.805 22.9083 158.296 22.9191 161.791 22.9407C162.411 22.9407 162.594 22.752 162.589 22.1263C162.557 19.1061 162.589 16.0859 162.562 13.0656C162.562 12.3861 162.767 12.1326 163.452 12.1758C164.134 12.2189 164.819 12.2189 165.501 12.1758C166.149 12.1326 166.354 12.3753 166.348 13.0225C166.31 16.6845 166.321 20.3627 166.327 24.0409Z" fill="#E5E5E6"/>
<path d="M214.872 35.8359C213.523 35.8359 212.299 35.8359 211.096 35.809C210.908 35.809 210.665 35.4854 210.557 35.2696C210.007 34.0651 209.482 32.8535 208.982 31.6346C208.917 31.424 208.779 31.2432 208.594 31.1239C208.409 31.0046 208.187 30.9543 207.968 30.982C204.265 31.0036 200.562 31.0036 196.858 30.982C196.661 30.9589 196.463 31.0064 196.298 31.116C196.133 31.2257 196.012 31.3903 195.958 31.5806C195.445 32.8211 194.879 34.0399 194.34 35.2804C194.294 35.4605 194.185 35.6181 194.032 35.7241C193.879 35.8301 193.694 35.8775 193.509 35.8575C192.382 35.8197 191.255 35.8575 190.02 35.8575C190.359 35.0215 190.656 34.2395 190.98 33.5168C193.374 28.0265 195.769 22.5397 198.163 17.0566C198.767 15.6759 199.366 14.2952 199.932 12.8984C199.99 12.672 200.128 12.4743 200.32 12.3423C200.513 12.2103 200.747 12.153 200.979 12.1811C201.922 12.2189 202.866 12.1811 203.81 12.1487C204.052 12.1133 204.299 12.167 204.504 12.3C204.71 12.433 204.86 12.636 204.927 12.8714C206.307 16.1074 207.702 19.3541 209.112 22.6116C210.66 26.182 212.229 29.7415 213.782 33.3065C214.149 34.0885 214.483 34.9083 214.872 35.8359ZM202.532 16.7869C202.371 16.9985 202.223 17.22 202.09 17.4503C200.792 20.431 199.497 23.4134 198.207 26.3977C197.899 27.1096 197.975 27.2013 198.746 27.2013H206.172C206.922 27.2013 207.003 27.0773 206.712 26.3654C205.665 23.9384 204.615 21.5168 203.562 19.1006C203.244 18.3941 202.92 17.6714 202.532 16.7869Z" fill="#E5E5E6"/>
<path d="M121.536 24.0032C121.536 20.2764 121.536 16.5551 121.536 12.8283C121.536 12.289 121.714 12.138 122.232 12.1434C125.576 12.1757 128.925 12.1434 132.274 12.2081C134.464 12.2131 136.562 13.0878 138.107 14.6399C139.652 16.1919 140.517 18.2941 140.512 20.484C140.507 22.674 139.632 24.7722 138.08 26.3171C136.528 27.8621 134.426 28.7273 132.236 28.7223C130.23 28.7816 128.229 28.7546 126.223 28.7654C125.279 28.7654 125.263 28.7924 125.263 29.7092C125.263 31.5268 125.263 33.3389 125.263 35.1564C125.263 35.7227 125.069 35.9007 124.518 35.8737C123.742 35.8333 122.965 35.8333 122.189 35.8737C121.563 35.9169 121.504 35.5933 121.504 35.1025C121.504 31.5214 121.504 27.9349 121.504 24.3537V24.0032H121.536ZM125.247 20.4436C125.247 21.7164 125.247 22.9892 125.247 24.262C125.247 24.8013 125.441 25.0117 125.991 25.0063C127.97 25.0063 129.949 25.0063 131.923 25.0063C132.324 24.9961 132.722 24.94 133.11 24.8391C134.183 24.5678 135.124 23.9231 135.764 23.0207C136.405 22.1183 136.703 21.0173 136.605 19.9151C136.428 18.8699 135.908 17.9136 135.126 17.1976C134.345 16.4815 133.347 16.0466 132.29 15.9618C130.165 15.9241 128.046 15.9618 125.921 15.9618C125.381 15.9618 125.198 16.1937 125.214 16.7277C125.263 17.925 125.247 19.1492 125.247 20.422V20.4436Z" fill="#E5E5E6"/>
<path d="M94.5325 19.9058C94.5325 17.5512 94.5325 15.1965 94.5325 12.8419C94.5325 12.2401 94.7344 12.087 95.2925 12.1186C95.965 12.1635 96.6397 12.1635 97.3122 12.1186C97.9712 12.0711 98.1944 12.2876 98.1891 12.9686C98.1572 17.0091 98.1572 21.0479 98.1891 25.0849C98.1885 25.9353 98.3011 26.7821 98.524 27.6032C99.1936 29.9578 101.75 32.228 105.332 32.0273C106.682 31.909 107.962 31.3825 109.001 30.5187C110.04 29.6549 110.787 28.4954 111.142 27.1967C111.266 26.6101 111.325 26.0116 111.317 25.4122C111.317 21.2573 111.344 17.1024 111.317 12.9475C111.317 12.2981 111.508 12.1028 112.146 12.1556C112.841 12.211 113.54 12.211 114.235 12.1556C114.851 12.1081 115.032 12.3034 115.027 12.9211C114.995 16.0149 115.027 19.1086 115.027 22.2024C115.027 23.5169 115.027 24.842 114.979 26.1461C114.862 29.773 113.119 32.4814 110.025 34.2869C108.491 35.2543 106.721 35.7907 104.904 35.8391C103.088 35.8875 101.291 35.4462 99.7069 34.562C98.1223 33.6778 96.8084 32.3838 95.9048 30.8174C95.0012 29.251 94.5417 27.4707 94.575 25.6656C94.5272 23.7545 94.575 21.8381 94.575 19.9216L94.5325 19.9058Z" fill="#E5E5E6"/>
<path d="M192.139 12.1649C191.6 13.1357 191.125 13.9932 190.64 14.8615C188.25 19.0899 185.85 23.3128 183.483 27.5465C183.277 27.9358 183.166 28.3682 183.159 28.8085C183.127 30.9334 183.132 33.0584 183.159 35.1779C183.159 35.7173 182.992 35.8845 182.474 35.8683C181.649 35.8305 180.819 35.8305 179.993 35.8683C179.497 35.8683 179.346 35.7065 179.352 35.2157C179.352 33.1393 179.389 31.0629 179.352 28.9865C179.342 28.4207 179.196 27.8655 178.926 27.3685C176.175 22.4552 173.387 17.5582 170.609 12.6557C170.528 12.5155 170.474 12.3699 170.366 12.1164C171.753 12.1164 173.063 12.1164 174.374 12.1433C174.579 12.1433 174.821 12.5155 174.962 12.7636C176.917 16.1757 178.87 19.5914 180.819 23.0107C180.916 23.1887 181.04 23.3505 181.223 23.6364C181.444 23.3182 181.633 23.097 181.762 22.8436C183.672 19.4854 185.574 16.1218 187.468 12.7528C187.56 12.5477 187.713 12.3761 187.906 12.262C188.099 12.1479 188.323 12.097 188.547 12.1164C189.685 12.1811 190.834 12.1649 192.139 12.1649Z" fill="#E5E5E6"/>
<path d="M80.4661 32.0553C83.0602 32.0553 85.6598 32.0553 88.2486 32.0553C88.7879 32.0553 89.0252 32.1847 88.9928 32.7672C88.9497 33.5198 88.9497 34.2743 88.9928 35.027C89.036 35.6688 88.8256 35.8737 88.1623 35.8683C84.387 35.8413 80.5686 35.8683 76.7717 35.8683C75.4072 35.8683 74.0373 35.8359 72.6728 35.8683C72.0256 35.8683 71.8477 35.6526 71.8854 35.0539C71.9259 34.2994 71.9259 33.5433 71.8854 32.7887C71.8854 32.2494 72.0256 32.0553 72.5973 32.0607C75.2185 32.093 77.8342 32.0607 80.4499 32.0607L80.4661 32.0553Z" fill="#FF1A8C"/>
<path d="M80.6066 12.1378C83.1954 12.1378 85.7896 12.1378 88.3783 12.1378C88.8583 12.1378 88.9986 12.2942 88.9878 12.7419C88.9878 13.594 88.9878 14.4408 88.9878 15.2875C88.9878 15.7405 88.8098 15.9347 88.3675 15.9293C87.7797 15.9293 87.1918 15.9293 86.6039 15.9293H72.808C71.8857 15.9293 71.8857 15.9293 71.8857 14.9801C71.8857 14.2951 71.9235 13.6156 71.8857 12.9306C71.8857 12.3374 72.1069 12.1594 72.6732 12.1648C75.3159 12.1648 77.9532 12.1648 80.5905 12.1648L80.6066 12.1378Z" fill="#FF1A8C"/>
<path d="M79.479 26.0634C77.2354 26.0634 74.9972 26.0364 72.7536 26.0634C72.0525 26.0634 71.8583 25.8422 71.9014 25.1735C71.95 24.3969 71.9014 23.6149 71.9014 22.8382C71.9014 22.4176 72.0525 22.2665 72.4839 22.2665C77.1077 22.2665 81.7316 22.2665 86.3554 22.2665C86.7814 22.2665 86.954 22.4176 86.9486 22.8382C86.9486 23.7605 86.9486 24.6773 86.9486 25.5996C86.9486 26.0796 86.652 26.0472 86.3392 26.0472L79.479 26.0634Z" fill="#FF1A8C"/>
</svg>
